# xmcd
#
# Track frame offsets: 
#        151
#        15138
#        27849
#        42809
#        58549
#        74316
#        87241
#        108634
#        122639
#        138603
#        154757
#        168281
#        182212
#        197205
#        211569
#        227847
#
# Disc length: 3456 seconds
#
# Revision: 0
# Processed by: cddbd v1.4PL0 Copyright (c) Steve Scherf et al.
# Submitted via: ExactAudioCopy v0.90b4
#
DISCID=d00d7e10
DTITLE=Alabama - Legendary Alabama - Disc 3
DYEAR=1900
DGENRE=Country
TTITLE0=Hometown Honeymoon
TTITLE1=I'm In A Hurry (And I Don't Know Why)
TTITLE2=Reckless
TTITLE3=Give Me One More Shot
TTITLE4=In Pictures
TTITLE5=She Ain't Your Ordinary Girl
TTITLE6=Dancin' Shaggin' On The Boulevard
TTITLE7=My Girl
TTITLE8=Sad Lookin' Moon
TTITLE9=Five O'Clock 500
TTITLE10=How Do You Fall In Love
TTITLE11=Keepin' Up
TTITLE12=Clear Across America
TTITLE13=I Can't Hide My Heart
TTITLE14=I Can't Love You Any Less
TTITLE15=When It All Goes South
EXTD=
EXTT0=
EXTT1=
EXTT2=
EXTT3=
EXTT4=
EXTT5=
EXTT6=
EXTT7=
EXTT8=
EXTT9=
EXTT10=
EXTT11=
EXTT12=
EXTT13=
EXTT14=
EXTT15=
PLAYORDER=
